# xmcd CD database file
#
# Track frame offsets:
#	150
#	11397
#	26907
#	38541
#	50534
#	64645
#	75787
#	87847
#	101769
#	114362
#
# Disc length: 1699 seconds
#
# Revision: 1
# Processed by: cddbd v1.5.1PL0 Copyright (c) Steve Scherf et al.
# Submitted via: CDex 1.40Beta8
#
DISCID=6806a10a
DTITLE=Conway Twity - Hello Darlin'
DYEAR=2005
DGENRE=Country
TTITLE0=Hello Darlin'
TTITLE1=Touch The Hand
TTITLE2=To See An Angel Cry
TTITLE3=(Lying Here) With Linda On My Mind
TTITLE4=Fifteen Years Ago
TTITLE5=As Soon As I Hang Up the Phone
TTITLE6=I Can't See Me Without You
TTITLE7=Baby's Gone
TTITLE8=I've Hurt Her More Than She Loves Me
TTITLE9=Danny Boy
EXTD=YEAR: 2005 ID3G: 2
EXTT0=
EXTT1=
EXTT2=
EXTT3=
EXTT4=
EXTT5=
EXTT6=
EXTT7=
EXTT8=
EXTT9=
PLAYORDER=
